<?xml version="1.0" encoding="UTF-8" standalone="no"?>
<!DOCTYPE svg PUBLIC "-//W3C//DTD SVG 1.1//EN"
 "http://www.w3.org/Graphics/SVG/1.1/DTD/svg11.dtd">
<!-- Generated by graphviz version 2.38.0 (20140413.2041)
 -->
<!-- Title: models_diagram Pages: 1 -->
<svg width="477pt" height="158pt"
 viewBox="0.00 0.00 477.05 158.00" xmlns="http://www.w3.org/2000/svg" xmlns:xlink="http://www.w3.org/1999/xlink">
<g id="graph0" class="graph" transform="scale(1 1) rotate(0) translate(4 154)">
<title>models_diagram</title>
<polygon fill="none" stroke="none" points="-4,4 -4,-154 473.047,-154 473.047,4 -4,4"/>
<!-- _diagram_info -->
<g id="node1" class="node"><title>_diagram_info</title>
<text text-anchor="start" x="8" y="-135.6" font-family="Times,serif" font-size="13.00">Models diagram</text>
<text text-anchor="start" x="8" y="-121.6" font-family="Times,serif" font-size="13.00">Date: Feb 20 2018 &#45; 15:41</text>
<text text-anchor="start" x="8" y="-107.6" font-family="Times,serif" font-size="13.00">Migration version: 20180220183244</text>
<text text-anchor="start" x="8" y="-93.6" font-family="Times,serif" font-size="13.00">Generated by RailRoady 1.5.3</text>
<text text-anchor="start" x="8" y="-79.6" font-family="Times,serif" font-size="13.00">http://railroady.prestonlee.com</text>
</g>
<!-- ApplicationRecord -->
<g id="node2" class="node"><title>ApplicationRecord</title>
<ellipse fill="none" stroke="black" cx="309" cy="-111" rx="77.1866" ry="18"/>
<text text-anchor="middle" x="309" y="-107.3" font-family="Times,serif" font-size="14.00">ApplicationRecord</text>
</g>
<!-- Playlist -->
<g id="node3" class="node"><title>Playlist</title>
<ellipse fill="none" stroke="black" cx="432" cy="-18" rx="37.0935" ry="18"/>
<text text-anchor="middle" x="432" y="-14.3" font-family="Times,serif" font-size="14.00">Playlist</text>
</g>
<!-- User -->
<g id="node4" class="node"><title>User</title>
<ellipse fill="none" stroke="black" cx="432" cy="-111" rx="27.0966" ry="18"/>
<text text-anchor="middle" x="432" y="-107.3" font-family="Times,serif" font-size="14.00">User</text>
</g>
<!-- User&#45;&gt;Playlist -->
<g id="edge1" class="edge"><title>User&#45;&gt;Playlist</title>
<path fill="none" stroke="#19c0d8" d="M432,-84.7285C432,-72.7246 432,-58.3622 432,-46.1291"/>
<ellipse fill="none" stroke="#19c0d8" cx="432" cy="-88.8836" rx="4" ry="4"/>
<polygon fill="#19c0d8" stroke="#19c0d8" points="432,-46.0397 436.5,-36.0396 432,-41.0397 432,-36.0397 432,-36.0397 432,-36.0397 432,-41.0397 427.5,-36.0397 432,-46.0397 432,-46.0397"/>
</g>
</g>
</svg>
