<?xml version="1.0" encoding="UTF-8" standalone="no"?>
<!DOCTYPE svg PUBLIC "-//W3C//DTD SVG 1.1//EN"
 "http://www.w3.org/Graphics/SVG/1.1/DTD/svg11.dtd">
<!-- Generated by graphviz version 2.38.0 (20140413.2041)
 -->
<!-- Title: models_diagram Pages: 1 -->
<svg width="656pt" height="258pt"
 viewBox="0.00 0.00 656.00 258.00" xmlns="http://www.w3.org/2000/svg" xmlns:xlink="http://www.w3.org/1999/xlink">
<g id="graph0" class="graph" transform="scale(1 1) rotate(0) translate(4 254)">
<title>models_diagram</title>
<polygon fill="none" stroke="none" points="-4,4 -4,-254 652,-254 652,4 -4,4"/>
<!-- _diagram_info -->
<g id="node1" class="node"><title>_diagram_info</title>
<text text-anchor="start" x="8" y="-221.1" font-family="Times,serif" font-size="13.00">Models diagram</text>
<text text-anchor="start" x="8" y="-207.1" font-family="Times,serif" font-size="13.00">Date: Feb 20 2018 &#45; 15:41</text>
<text text-anchor="start" x="8" y="-193.1" font-family="Times,serif" font-size="13.00">Migration version: 20180220183244</text>
<text text-anchor="start" x="8" y="-179.1" font-family="Times,serif" font-size="13.00">Generated by RailRoady 1.5.3</text>
<text text-anchor="start" x="8" y="-165.1" font-family="Times,serif" font-size="13.00">http://railroady.prestonlee.com</text>
</g>
<!-- ApplicationRecord -->
<g id="node2" class="node"><title>ApplicationRecord</title>
<ellipse fill="none" stroke="black" cx="309" cy="-196.5" rx="77.1866" ry="18"/>
<text text-anchor="middle" x="309" y="-192.8" font-family="Times,serif" font-size="14.00">ApplicationRecord</text>
</g>
<!-- Playlist -->
<g id="node3" class="node"><title>Playlist</title>
<path fill="none" stroke="black" d="M416,-0.5C416,-0.5 636,-0.5 636,-0.5 642,-0.5 648,-6.5 648,-12.5 648,-12.5 648,-94.5 648,-94.5 648,-100.5 642,-106.5 636,-106.5 636,-106.5 416,-106.5 416,-106.5 410,-106.5 404,-100.5 404,-94.5 404,-94.5 404,-12.5 404,-12.5 404,-6.5 410,-0.5 416,-0.5"/>
<text text-anchor="middle" x="526" y="-91.3" font-family="Times,serif" font-size="14.00">Playlist</text>
<polyline fill="none" stroke="black" points="404,-83.5 648,-83.5 "/>
<text text-anchor="start" x="412" y="-68.3" font-family="Times,serif" font-size="14.00">id :bigint</text>
<text text-anchor="start" x="412" y="-53.3" font-family="Times,serif" font-size="14.00">name :character varying</text>
<text text-anchor="start" x="412" y="-38.3" font-family="Times,serif" font-size="14.00">user_id :bigint</text>
<text text-anchor="start" x="412" y="-23.3" font-family="Times,serif" font-size="14.00">created_at :timestamp without time zone</text>
<text text-anchor="start" x="412" y="-8.3" font-family="Times,serif" font-size="14.00">updated_at :timestamp without time zone</text>
</g>
<!-- User -->
<g id="node4" class="node"><title>User</title>
<path fill="none" stroke="black" d="M416,-143.5C416,-143.5 636,-143.5 636,-143.5 642,-143.5 648,-149.5 648,-155.5 648,-155.5 648,-237.5 648,-237.5 648,-243.5 642,-249.5 636,-249.5 636,-249.5 416,-249.5 416,-249.5 410,-249.5 404,-243.5 404,-237.5 404,-237.5 404,-155.5 404,-155.5 404,-149.5 410,-143.5 416,-143.5"/>
<text text-anchor="middle" x="526" y="-234.3" font-family="Times,serif" font-size="14.00">User</text>
<polyline fill="none" stroke="black" points="404,-226.5 648,-226.5 "/>
<text text-anchor="start" x="412" y="-211.3" font-family="Times,serif" font-size="14.00">id :bigint</text>
<text text-anchor="start" x="412" y="-196.3" font-family="Times,serif" font-size="14.00">name :character varying</text>
<text text-anchor="start" x="412" y="-181.3" font-family="Times,serif" font-size="14.00">email :character varying</text>
<text text-anchor="start" x="412" y="-166.3" font-family="Times,serif" font-size="14.00">created_at :timestamp without time zone</text>
<text text-anchor="start" x="412" y="-151.3" font-family="Times,serif" font-size="14.00">updated_at :timestamp without time zone</text>
</g>
<!-- User&#45;&gt;Playlist -->
<g id="edge1" class="edge"><title>User&#45;&gt;Playlist</title>
<path fill="none" stroke="#d9b5a9" d="M526,-135.194C526,-129.154 526,-123.013 526,-116.952"/>
<ellipse fill="none" stroke="#d9b5a9" cx="526" cy="-139.397" rx="4" ry="4"/>
<polygon fill="#d9b5a9" stroke="#d9b5a9" points="526,-116.859 530.5,-106.859 526,-111.859 526,-106.859 526,-106.859 526,-106.859 526,-111.859 521.5,-106.859 526,-116.859 526,-116.859"/>
</g>
</g>
</svg>
